# xmcd CD database file
#
# Track frame offsets:
#	150
#	20051
#	29993
#	47107
#	68326
#	84491
#	106311
#	122825
#	142730
#	152678
#	169936
#	191163
#	207300
#	229109
#
# Disc length: 3272 seconds
#
# Revision: 1
# Processed by: cddbd v1.5.1PL0 Copyright (c) Steve Scherf et al.
# Submitted via: CDex 1.51
#
DISCID=c10cc60e
DTITLE=PROJECT"D" - お兄ちゃんどいてそいつもっと殺せない！Summer!
DYEAR=2004
DGENRE=Dempa Album
TTITLE0=お兄ちゃんどいて！そいつもっと殺せない！Summer!
TTITLE1=わたし　はいぱーぱわーがーる
TTITLE2=あおりちゃんとあらしくんのご・く・あ・く♪2ちゃんねるらいふ
TTITLE3=【kissは】ﾄﾞｷﾄﾞｷ☆いもうとﾊｧﾄ【おあずけ】
TTITLE4=『moe』は明日のかてになり
TTITLE5=みちとのそうぐう
TTITLE6=お兄ちゃんどいて！わたし歌えない！
TTITLE7=お兄ちゃんどいて！そいつもっと殺せない！Summer!(OFF VOCAL)
TTITLE8=わたし　はいぱーぱわーがーる(OFF VOCAL)
TTITLE9=あおりちゃんとあらしくんのご・く・あ・く♪2ちゃんねるらいふ(OFF VOCAL)
TTITLE10=【kissは】ﾄﾞｷﾄﾞｷ☆いもうとﾊｧﾄ【おあずけ】(OFF VOCAL)
TTITLE11=『moe』は明日のかてになり(OFF VOCAL)
TTITLE12=みちとのそうぐう(OFF VOCAL)
TTITLE13=お兄ちゃんどいて！わたし歌えない！(OFF VOCAL)
EXTD=YEAR: 2004
EXTT0=
EXTT1=
EXTT2=
EXTT3=
EXTT4=
EXTT5=
EXTT6=
EXTT7=
EXTT8=
EXTT9=
EXTT10=
EXTT11=
EXTT12=
EXTT13=
PLAYORDER=
